<?xml version="1.0" encoding="UTF-8"?>
<!DOCTYPE svg PUBLIC "-//W3C//DTD SVG 1.1//EN" "http://www.w3.org/Graphics/SVG/1.1/DTD/svg11.dtd">
<!-- Creator: CorelDRAW 2017 -->
<svg xmlns="http://www.w3.org/2000/svg" xml:space="preserve" width="9.72917in" height="9.83333in" version="1.1" style="shape-rendering:geometricPrecision; text-rendering:geometricPrecision; image-rendering:optimizeQuality; fill-rule:evenodd; clip-rule:evenodd"
viewBox="0 0 9729.17 9833.33"
 xmlns:xlink="http://www.w3.org/1999/xlink">
 <defs>
  <style type="text/css">
   <![CDATA[
    .fil0 {fill:#D94F00}
    .fil1 {fill:white}
   ]]>
  </style>
 </defs>
 <g id="Layer_x0020_1">
  <metadata id="CorelCorpID_0Corel-Layer"/>
  <g id="_2420163980688">
   <polygon id="path3345" class="fil0" points="-0,0 9729.17,0 9729.17,9833.33 -0,9833.33 "/>
   <polygon id="path3347" class="fil1" points="5533.31,1907.99 8026.15,1907.99 8026.15,4402.7 5533.31,4402.7 "/>
   <polygon id="path3349" class="fil1" points="2519.15,5664.19 2519.15,5909.04 2949.62,5909.04 2949.62,7202.17 3244.81,7202.17 3244.81,5899.89 3645.08,5899.89 3645.08,5655.09 2519.15,5664.18 "/>
   <g>
    <path id="path3351" class="fil1" d="M2298.5 5966.87l0 -243.39c-238.06,-108.02 -510.13,-139.41 -792.22,0 -459.64,205.14 -475.45,1220.28 -16.16,1420.24 262.89,134.67 814.82,71.17 867.91,-46.35l0 -804.74 -543.69 0 0 212.28 240.22 0 0 423.85c-790.33,382.02 -936.9,-1462.21 243.95,-961.87l-0.02 -0.01zm0 0l0 0 0 0z"/>
   </g>
   <path id="path3353" class="fil1" d="M4128.26 6490.79l282.97 0c234.69,11.13 294.74,450.95 -9.67,449.54l-273.31 0 0 -449.54 0.01 0zm0 -619.9l282.97 0c234.69,43.65 150.04,390.65 -9.67,400.69l-273.31 0 0 -400.69 0.01 0zm-292.56 -236.58l0 1555.28 778.35 0c398.7,-143.06 414.77,-757.03 0,-822.2 381.54,-41.67 400.52,-740.81 -257.5,-742.53l-520.83 9.46 -0.01 0z"/>
   <path id="path3355" class="fil1" d="M5207.78 6069.75l0 232.13c208.69,-58.87 659.48,-220.48 617.93,123.35 -397.35,-27.02 -668.16,44.44 -713.44,291.3 -75.43,534.17 496.56,585.09 738.93,323.47l0 125.84 274.56 0 0 -938.39c-66.7,-300.34 -518.49,-339.36 -917.96,-157.71l-0.01 0.01zm231.97 601c61.44,-80.03 261.13,-76.65 392.45,-38.41l0 204.43c-215.34,233.47 -566.89,126.98 -392.45,-166.02z"/>
   <path id="path3357" class="fil1" d="M6695.06 6344.16c71.54,-77.47 452.89,-223.06 509.65,0l0 826.46 306.07 0 0 -876.7c-66.64,-365.88 -413.58,-429.77 -836.96,-183.48l0 -137.81 -288.87 0 0 1202.22 305.96 0 4.17 -830.68 -0.02 -0.01z"/>
   <polygon id="path3359" class="fil1" points="8470.41,5964.32 8071.17,6502.74 8495.88,7162.21 8865.36,7153.89 8398.19,6519.42 8818.69,5976.84 8470.42,5964.32 "/>
   <polygon id="path3361" class="fil1" points="7739.84,5572 8041.43,5572 8041.43,7162.21 7739.84,7162.21 "/>
   <polygon id="path3367" class="fil1" points="5533.31,1907.99 8026.15,1907.99 8026.15,4402.7 5533.31,4402.7 "/>
  </g>
 </g>
</svg>
