<?xml version="1.0" encoding="UTF-8"?>
<!DOCTYPE svg PUBLIC "-//W3C//DTD SVG 1.1//EN" "http://www.w3.org/Graphics/SVG/1.1/DTD/svg11.dtd">
<!-- Creator: CorelDRAW 2017 -->
<svg xmlns="http://www.w3.org/2000/svg" xml:space="preserve" width="3.11458in" height="3.14583in" version="1.1" style="shape-rendering:geometricPrecision; text-rendering:geometricPrecision; image-rendering:optimizeQuality; fill-rule:evenodd; clip-rule:evenodd"
viewBox="0 0 3114.58 3145.83"
 xmlns:xlink="http://www.w3.org/1999/xlink">
 <defs>
  <style type="text/css">
   <![CDATA[
    .str0 {stroke:#E32A2D;stroke-width:6.94;stroke-miterlimit:2.61313}
    .fil0 {fill:#E32A2D}
    .fil1 {fill:#FEFEFE;fill-rule:nonzero}
   ]]>
  </style>
 </defs>
 <g id="Layer_x0020_1">
  <metadata id="CorelCorpID_0Corel-Layer"/>
  <rect class="fil0" x="0.63" y="-0.42" width="3113.33" height="3146.67"/>
  <g id="_2420050589776">
   <path class="fil1 str0" d="M1152.92 668.01c0,0 393.09,831.46 394.17,833.87 49.49,106.77 121.64,231.41 55.91,347.33 -40.33,71.26 -122.11,137.87 -207.48,137.87 -0.05,0 -561.01,0 -561.01,0l318.41 -1319.06z"/>
   <path class="fil1 str0" d="M1961.64 1694.63c0,0 -393.09,-831.53 -394.17,-833.9 -49.48,-106.77 -121.62,-231.41 -55.91,-347.33 40.35,-71.26 122.11,-137.83 207.48,-137.83 0.07,0 561.02,0 561.02,0l-318.43 1319.06z"/>
  </g>
  <path class="fil1" d="M784.12 2650.28c0,26.45 2.68,51.22 8.05,74.3 5.36,23.08 18.23,46.81 38.61,71.2 19.85,23.34 46.8,39.94 80.86,49.8 34.06,9.85 72.28,14.78 114.65,14.78 56.32,0 101.91,-10.11 136.78,-30.35 24.14,-14 43.31,-29.95 57.52,-47.85 14.22,-17.89 24.67,-36.83 31.38,-56.8 6.7,-19.97 11,-39.42 12.87,-58.35 1.88,-18.93 2.81,-40.59 2.81,-64.97 0,-19.71 0.27,-43.44 0.8,-71.19 0.54,-27.75 1.34,-54.98 2.41,-81.7 1.07,-26.71 2.69,-52.52 4.83,-77.42 2.15,-24.9 4.56,-44.87 7.24,-59.91 -6.97,1.04 -14.75,2.07 -23.33,3.11 -8.58,1.04 -16.63,1.56 -24.13,1.56 -8.58,0 -17.56,-0.39 -26.95,-1.17 -9.39,-0.78 -17.57,-1.94 -24.54,-3.5 1.61,15.56 2.82,27.75 3.62,36.57 0.81,8.82 1.75,18.93 2.82,30.34 0.54,15.04 0.81,39.43 0.81,73.14l0 93.37c0,40.98 -0.67,72.62 -2.01,94.93 -1.34,22.31 -4.69,42.28 -10.06,59.91 -4.83,17.64 -12.07,32.42 -21.72,44.35 -9.65,11.93 -20.38,21.4 -32.18,28.4 -11.8,7 -23.87,11.93 -36.2,14.78 -12.34,2.85 -24.41,4.28 -36.21,4.28 -24.14,0 -46.39,-5.19 -66.78,-15.56 -20.38,-10.37 -35.4,-24.38 -45.05,-42.02 -7.51,-14.01 -13.14,-32.81 -16.9,-56.41 -3.75,-23.6 -5.63,-56.93 -5.63,-99.98 0,-17.64 0.13,-37.61 0.41,-59.91 0.27,-22.3 0.93,-47.33 2.01,-75.08 1.07,-27.75 2.28,-53.04 3.62,-75.86 1.34,-22.82 2.81,-41.24 4.43,-55.24 -9.65,1.56 -20.65,2.72 -32.99,3.5 -12.33,0.78 -26.01,1.17 -41.03,1.17 -20.38,0 -46.4,-1.56 -78.04,-4.67 2.15,13.49 3.89,33.85 5.23,61.08 1.34,27.23 2.01,52 2.01,74.31l0 203.08z"/>
  <path id="1" class="fil1" d="M1653.03 2560.02c13.41,-3.11 26.28,-6.74 38.62,-10.89 12.34,-4.15 25.07,-10.63 38.22,-19.45 13.14,-8.82 24.14,-20.75 32.99,-35.79 8.85,-15.04 13.28,-33.2 13.28,-54.46 0,-40.46 -16.5,-71.84 -49.48,-94.15 -32.98,-22.3 -74.69,-33.46 -125.1,-33.46 -18.78,0 -46.13,0.78 -82.07,2.33 -29.5,1.56 -50.42,2.33 -62.76,2.33 -15.02,0 -28.16,-0.39 -39.42,-1.17 -11.26,-0.78 -21.19,-1.94 -29.77,-3.5l0.8 8.56c1.61,14.52 2.95,28.4 4.03,41.63 1.07,13.23 1.87,29.44 2.41,48.63 1.61,49.8 2.41,124.75 2.41,224.87 0,35.27 -0.54,72.49 -1.61,111.65 -1.07,39.16 -2.68,74.05 -4.83,104.65 36.48,-3.11 63.29,-4.67 80.46,-4.67 8.05,0 18.77,0.26 32.18,0.78 13.41,0.52 26.82,1.04 40.23,1.56 25.74,1.56 41.57,2.33 47.47,2.33 59,0 107,-13.87 144.01,-41.63 37.01,-27.75 55.52,-64.97 55.52,-111.65 0,-25.94 -5.1,-47.59 -15.29,-64.97 -10.19,-17.38 -22.8,-30.74 -37.81,-40.07 -15.02,-9.34 -29.23,-15.95 -42.64,-19.84 -13.41,-3.89 -27.09,-7.13 -41.03,-9.72l-0.81 0 0 -3.89zm-123.09 -132.27c0,-6.74 0.27,-17.89 0.8,-33.46l0 -31.12c5.37,-0.52 11.26,-0.78 17.7,-0.78 61.15,0 91.72,29.31 91.72,87.92 0,31.64 -9.12,54.98 -27.35,70.03 -18.24,15.04 -40.5,22.56 -66.78,22.56 -6.97,0 -12.33,0 -16.09,0l0 -115.15zm118.27 265.32c0,31.13 -7.64,56.41 -22.93,75.86 -15.29,19.45 -38.48,29.18 -69.59,29.18 -6.44,0 -14.49,-0.52 -24.14,-1.56 -1.07,-26.45 -1.61,-50.06 -1.61,-70.8 0,-20.75 0,-64.84 0,-132.27 40.76,0 70.67,7 89.7,21.01 19.04,14 28.56,40.2 28.56,78.58z"/>
  <path id="2" class="fil1" d="M1811.53 2851.8c7.5,-1.56 15.15,-2.59 22.93,-3.11 7.78,-0.52 15.15,-0.78 22.13,-0.78 9.12,0 21.99,1.3 38.62,3.89 2.68,0 4.56,0 5.63,0 5.9,-24.9 12.74,-49.15 20.52,-72.75 7.78,-23.6 16.49,-49.15 26.15,-76.64l1.61 -3.89c31.64,-1.04 62.48,-1.56 92.52,-1.56 13.41,0 32.45,0.52 57.12,1.56l26.55 0c0.53,1.04 1.34,2.85 2.41,5.44 8.58,23.86 16.49,46.17 23.74,66.91 7.24,20.75 15.69,47.72 25.34,80.92 10.73,-2.07 22.93,-3.37 36.61,-3.89 13.68,-0.52 29.91,-0.78 48.68,-0.78 30.57,0 55.78,1.56 75.63,4.67 -15.02,-33.72 -30.3,-69.12 -45.86,-106.21 -15.56,-37.09 -33.65,-80.92 -54.31,-131.49 -20.65,-50.57 -41.03,-101.93 -61.15,-154.06 -20.11,-52.13 -39.02,-103.61 -56.72,-154.45 -12.87,3.11 -26.01,4.67 -39.43,4.67 -13.94,0 -27.89,-1.56 -41.83,-4.67 -12.88,35.79 -29.5,79.23 -49.89,130.33 -20.38,51.09 -41.97,104.26 -64.76,159.51 -22.8,55.24 -44.25,105.69 -64.36,151.33 -20.11,45.65 -36.07,80.66 -47.87,105.04zm293.66 -212.41c0,0 -7.51,0 -22.53,0 -19.85,1.04 -34.87,1.56 -45.06,1.56 -21.45,0 -43.18,-0.52 -65.17,-1.56l68.38 -170.4 64.37 170.4z"/>
 </g>
</svg>
