<?xml version="1.0" encoding="UTF-8"?>
<!DOCTYPE svg PUBLIC "-//W3C//DTD SVG 1.1//EN" "http://www.w3.org/Graphics/SVG/1.1/DTD/svg11.dtd">
<!-- Creator: CorelDRAW 2017 -->
<svg xmlns="http://www.w3.org/2000/svg" xml:space="preserve" width="3.11458in" height="3.14583in" version="1.1" style="shape-rendering:geometricPrecision; text-rendering:geometricPrecision; image-rendering:optimizeQuality; fill-rule:evenodd; clip-rule:evenodd"
viewBox="0 0 3114.58 3145.83"
 xmlns:xlink="http://www.w3.org/1999/xlink">
 <defs>
  <style type="text/css">
   <![CDATA[
    .fil1 {fill:#868786}
    .fil2 {fill:#E3200F}
    .fil0 {fill:#EFEFEF}
   ]]>
  </style>
 </defs>
 <g id="Layer_x0020_1">
  <metadata id="CorelCorpID_0Corel-Layer"/>
  <rect class="fil0" x="0.63" y="-0.42" width="3113.33" height="3146.67"/>
  <g id="_2419949881328">
   <g id="Page-1">
    <g id="ZenithBank">
     <g>
      <path id="Path-11" class="fil1" d="M570.19 1004.19c48.69,-157.95 112.21,-388.89 190.56,-692.83l1962.19 0 -2152.75 1765.8 969.47 -1186.15c-284.22,-0.44 -560.68,-0.67 -829.37,-0.67 -92.01,15.67 -159.4,162.69 -140.1,113.83z"/>
      <path id="Path-14" class="fil2" d="M2601.68 516.14l-2196.69 1797.04 2040.7 -11.68c83.68,-363.4 139.28,-619.98 166.8,-769.76 0,-66.01 -46.19,161.31 -166.8,180 -242.22,7.3 -516.43,10.93 -822.63,10.93l978.62 -1206.52z"/>
      <path id="ZENITH" class="fil1" d="M529.68 2755.7l193.74 0.59 -13.56 78.18 -318.2 0 10.1 -57.9 242.26 -284.64 -194.32 -0.58 13.85 -78.47 317.33 0 -9.82 56.46 -241.39 286.37zm511.66 -99.89l-154.48 0 -17.61 100.47 182.78 0 -13.57 78.18 -281.53 0 72.77 -421.59 282.1 0 -13.57 78.47 -183.06 0 -15.59 88.9 154.76 0 -12.99 75.57zm380.57 178.65l-95.57 0 -100.49 -266.09 -46.2 266.09 -98.74 0 72.76 -421.59 96.45 0 100.19 266.11 45.91 -266.11 98.76 0 -73.06 421.59zm170.07 0l-98.74 0 73.05 -421.59 98.46 0 -72.77 421.59zm442.08 -343.12l-122.43 0 -59.19 343.12 -99.05 0 59.48 -343.12 -120.41 0 13.87 -78.47 341.3 0 -13.57 78.47zm325.71 343.12l-98.18 0 30.31 -176.05 -144.08 0 -30.61 176.05 -98.75 0 72.77 -421.59 99.05 0 -29.17 167.37 144.38 0 28.88 -167.37 98.46 0 -73.05 421.59z"/>
     </g>
    </g>
   </g>
  </g>
 </g>
</svg>
